<svg width="108" height="108" viewBox="0 0 108 108" fill="none" xmlns="http://www.w3.org/2000/svg">
<path d="M35.9555 103.995C40.1922 105.338 44.967 106.135 50.1704 103.567C57.5679 99.9254 61.2751 86.9196 61.2751 86.9196C64.3854 77.7651 67.067 75.3066 70.4967 74.2326C71.0852 74.0228 71.6737 73.855 72.3209 73.6452C72.2621 73.7543 72.2117 73.9137 72.2117 74.0228C70.0681 82.0025 71.6232 86.5504 73.6071 89.1683C76.4484 92.8603 80.8449 91.0395 81.9209 90.5612C85.3506 89.0592 87.5531 86.4916 89.7471 83.6052C98.2206 72.2607 97.7919 55.1769 97.3043 51.8122C93.4963 23.3839 65.453 16.7467 63.0404 16.2097C62.9311 16.2097 62.8218 16.26 62.8218 16.3691V26.9164C62.8218 26.9668 62.8723 27.0255 62.9311 27.0759C94.6815 35.1059 93.925 58.9276 93.925 58.9276C92.9583 76.2716 82.0218 82.3717 77.0368 81.3061C73.6071 80.5593 73.4389 76.003 73.6071 73.2257C76.8771 72.1516 80.475 70.7587 83.1566 68.7869C86.1576 66.5381 87.6119 59.3639 87.5026 56.3097C87.2336 40.6271 75.2211 36.1296 70.7658 36.9351C66.3189 37.791 64.7637 44.3191 64.5956 47.3734C64.0072 57.0061 70.7069 57.6522 72.3209 57.4928C78.7013 56.7963 78.7013 51.1241 78.7013 51.1241C83.476 53.9602 84.3839 58.1892 84.3839 58.1892C81.4333 61.1848 77.4656 62.1497 71.5644 64.0209C65.8817 65.7914 65.0747 66.7563 61.6954 74.9374C58.3161 83.0766 56.7609 85.7532 55.5252 87.6244C49.8426 96.0824 42.3358 96.7788 37.0735 96.6698C21.6312 96.2922 11.0057 82.3801 7.63482 77.3959C5.60051 74.3416 4.57493 73.0579 4.04534 72.5292C3.93606 72.4202 3.77633 72.5292 3.82677 72.6887C9.40852 87.3056 21.1521 98.7591 35.9471 104.003M23.6151 62.8126L28.289 54.3882L19.8995 49.7312L15.2256 58.1557L23.6067 62.8126H23.6151ZM15.7216 80.9285C25.9604 86.1224 30.794 80.7691 32.5089 79.0573C39.856 71.7237 40.9824 59.4143 40.7638 54.9671C40.1166 40.2999 32.0802 34.7871 28.373 31.5734C25.3132 28.8463 23.9177 26.4885 23.2788 25.2047C23.1696 24.9865 22.9006 25.0453 22.9006 25.2551C22.5223 30.6084 22.3626 34.1913 22.7408 35.643C23.1696 37.1449 24.834 39.4944 30.8445 44.3191C36.9054 49.1858 37.9225 54.2791 37.9225 54.2791C34.1649 73.3851 22.5307 72.7977 22.5307 72.7977C11.695 72.0509 6.65969 64.3901 5.15497 57.1152C4.02853 51.8206 4.02853 43.3038 7.887 33.8809C14.3766 18.0389 28.1461 9.42988 32.1222 7.23147C33.2655 6.61893 36.9895 4.7142 37.7965 4.37856C43.8574 1.8613 45.6479 1.24877 46.0262 0.854401C46.2363 0.636239 45.9841 0.476814 45.816 0.501986C40.5873 1.39142 35.0897 3.35488 34.2827 3.67373C19.1178 9.63125 7.46669 22.2931 2.58266 37.942C-0.477217 47.5748 0.388604 56.0328 1.24604 59.7248C4.1462 72.2523 10.308 78.1427 15.73 80.9201M45.6395 84.4191C55.3319 74.0564 53.9449 61.705 53.6591 58.2815C52.8689 49.0264 47.9008 32.6474 45.3368 25.5655C43.0924 19.2304 40.6966 8.40618 40.2006 6.03157C40.1502 5.87214 39.9821 5.86376 39.9232 5.97284C38.9565 8.35584 36.9474 13.382 36.8633 16.3272C36.7372 20.7156 38.4185 27.1933 41.243 34.9297C45.32 46.1315 47.3628 53.633 47.9428 57.132C49.767 69.0722 47.1358 85.5267 31.7355 90.6955C27.3223 92.1806 29.407 92.8687 33.5008 91.6268C40.932 89.3697 43.7733 86.2231 45.6479 84.4275M60.0982 41.7431L64.646 33.4529L56.3407 28.8547L51.7928 37.1449L60.0982 41.7431ZM53.9281 107.049C83.5349 107.049 107.56 83.0682 107.56 53.5239C107.56 23.9796 83.5349 -0.00985718 53.9281 -0.00985718C52.4822 -0.00985718 50.9774 0.0404901 49.5316 0.149571C49.4727 0.199917 49.4223 0.258655 49.4223 0.309L49.313 10.4787C49.313 10.5878 49.3634 10.6382 49.4727 10.6382C51.1876 10.42 67.0082 8.92642 83.3163 20.4387C90.8231 25.7417 97.7414 34.1913 100.961 47.5748C102.087 52.1226 108.955 99.4471 49.3718 105.816C49.3718 105.816 45.8833 105.975 46.4213 106.512C48.8843 106.89 51.3558 107.049 53.9281 107.049ZM56.1725 29.14L60.7791 20.8498L52.4737 16.2517L47.8671 24.6006L56.1725 29.14Z" fill="white"/>
</svg>
