<svg width="20" height="20" viewBox="0 0 20 20" fill="none" xmlns="http://www.w3.org/2000/svg">
<path d="M13.3333 1.875H6.66667C4.65167 1.875 3.54167 2.985 3.54167 5V17.5C3.54167 17.7233 3.66085 17.9291 3.85335 18.04C3.95002 18.0966 4.05833 18.125 4.16667 18.125C4.27333 18.125 4.38089 18.0975 4.47672 18.0425L10 14.8859L15.5233 18.0417C15.7166 18.1525 15.955 18.1516 16.1466 18.0391C16.3391 17.9275 16.4583 17.7217 16.4583 17.4992V4.99919C16.4583 2.98502 15.3483 1.875 13.3333 1.875ZM15.2083 16.4225L10.3101 13.6242C10.1184 13.5142 9.88161 13.5142 9.68994 13.6242L4.79167 16.4233V5C4.79167 3.68583 5.3525 3.125 6.66667 3.125H13.3333C14.6475 3.125 15.2083 3.68583 15.2083 5V16.4225ZM13.125 6.66667C13.125 7.01167 12.845 7.29167 12.5 7.29167H7.5C7.155 7.29167 6.875 7.01167 6.875 6.66667C6.875 6.32167 7.155 6.04167 7.5 6.04167H12.5C12.845 6.04167 13.125 6.32167 13.125 6.66667Z" fill="url(#paint0_linear_571_510)"/>
<defs>
<linearGradient id="paint0_linear_571_510" x1="9.18809" y1="-0.263156" x2="22.1366" y2="8.58691" gradientUnits="userSpaceOnUse">
<stop stop-color="#72A9BB"/>
<stop offset="1" stop-color="#488396"/>
</linearGradient>
</defs>
</svg>
