<svg width="32" height="32" viewBox="0 0 32 32" fill="none" xmlns="http://www.w3.org/2000/svg">
<path d="M23.2399 1.66675H14.0947C11.2814 1.66675 9.66793 3.28001 9.66793 6.09334V7.00008H8.76265C5.90665 7.00008 4.33459 8.57347 4.33459 11.4281V29.3334C4.33459 29.6907 4.52529 30.0201 4.83329 30.1988C4.98796 30.2881 5.16126 30.3334 5.33459 30.3334C5.50526 30.3334 5.67736 30.2894 5.83069 30.2014L13.3346 25.9135L20.8385 30.2014C21.1492 30.3788 21.5306 30.3773 21.8359 30.1973C22.1439 30.0187 22.3346 29.6894 22.3346 29.3334V22.6721L26.1705 24.8681C26.3252 24.9561 26.4959 25.0001 26.6679 25.0001C26.8413 25.0001 27.0146 24.9548 27.1692 24.8655C27.4772 24.6868 27.6679 24.3574 27.6679 24.0001V6.09334C27.6666 3.28001 26.0532 1.66675 23.2399 1.66675ZM20.3333 27.6095L13.8294 23.8935C13.5227 23.7175 13.1439 23.7175 12.8372 23.8935L6.33329 27.6108V11.4294C6.33329 9.70544 7.03602 9.00138 8.76135 9.00138H17.9039C19.6293 9.00138 20.332 9.70544 20.332 11.4294V27.6095H20.3333ZM25.6666 22.2761L22.3333 20.3668V11.4281C22.3333 8.57214 20.7599 7.00008 17.9052 7.00008H11.6666V6.09334C11.6666 4.37068 12.3694 3.66675 14.0934 3.66675H23.2386C24.9626 3.66675 25.6653 4.36934 25.6653 6.09334V22.2761H25.6666ZM17 16.6667C17 17.2187 16.552 17.6667 16 17.6667H10.6666C10.1146 17.6667 9.66663 17.2187 9.66663 16.6667C9.66663 16.1147 10.1146 15.6667 10.6666 15.6667H16C16.552 15.6667 17 16.1147 17 16.6667Z" fill="#964848"/>
</svg>
