<svg width="20" height="20" viewBox="0 0 20 20" fill="none" xmlns="http://www.w3.org/2000/svg">
<path d="M14.5249 1.04175H8.80916C7.05083 1.04175 6.04244 2.05004 6.04244 3.80837V4.37508H5.47664C3.69164 4.37508 2.70911 5.35845 2.70911 7.14262V18.3334C2.70911 18.5567 2.82829 18.7626 3.02079 18.8743C3.11746 18.9301 3.22577 18.9584 3.33411 18.9584C3.44077 18.9584 3.54833 18.9309 3.64417 18.8759L8.33411 16.196L13.024 18.8759C13.2174 18.9867 13.4558 18.9859 13.6474 18.8734C13.8399 18.7617 13.9591 18.5559 13.9591 18.3334V14.1701L16.3566 15.5426C16.4532 15.5976 16.5599 15.6251 16.6674 15.6251C16.7758 15.6251 16.8841 15.5968 16.9808 15.541C17.1733 15.4293 17.2924 15.2234 17.2924 15.0001V3.80837C17.2916 2.05004 16.2832 1.04175 14.5249 1.04175ZM12.7083 17.2559L8.64335 14.9335C8.45168 14.8235 8.2149 14.8235 8.02323 14.9335L3.95829 17.2568V7.14343C3.95829 6.06593 4.3975 5.6259 5.47583 5.6259H11.1899C12.2683 5.6259 12.7075 6.06593 12.7075 7.14343V17.2559H12.7083ZM16.0416 13.9226L13.9583 12.7293V7.14262C13.9583 5.35762 12.9749 4.37508 11.1908 4.37508H7.29163V3.80837C7.29163 2.7317 7.73085 2.29175 8.80835 2.29175H14.5241C15.6016 2.29175 16.0408 2.73087 16.0408 3.80837V13.9226H16.0416ZM10.625 10.4167C10.625 10.7617 10.345 11.0417 9.99996 11.0417H8.95829V12.0834C8.95829 12.4284 8.67829 12.7084 8.33329 12.7084C7.98829 12.7084 7.70829 12.4284 7.70829 12.0834V11.0417H6.66663C6.32163 11.0417 6.04163 10.7617 6.04163 10.4167C6.04163 10.0717 6.32163 9.79175 6.66663 9.79175H7.70829V8.75008C7.70829 8.40508 7.98829 8.12508 8.33329 8.12508C8.67829 8.12508 8.95829 8.40508 8.95829 8.75008V9.79175H9.99996C10.345 9.79175 10.625 10.0717 10.625 10.4167Z" fill="white"/>
</svg>