<svg width="20" height="20" viewBox="0 0 20 20" fill="none" xmlns="http://www.w3.org/2000/svg">
<path d="M13.9583 9.16663C13.9583 9.51163 13.6783 9.79163 13.3333 9.79163H6.66667C6.32167 9.79163 6.04167 9.51163 6.04167 9.16663C6.04167 8.82163 6.32167 8.54163 6.66667 8.54163H13.3333C13.6783 8.54163 13.9583 8.82163 13.9583 9.16663ZM10.8333 11.875H6.66667C6.32167 11.875 6.04167 12.155 6.04167 12.5C6.04167 12.845 6.32167 13.125 6.66667 13.125H10.8333C11.1783 13.125 11.4583 12.845 11.4583 12.5C11.4583 12.155 11.1783 11.875 10.8333 11.875ZM18.125 5.68828V15.5616C18.125 17.7516 16.9184 18.9583 14.7268 18.9583H5.27323C3.08157 18.9583 1.875 17.7516 1.875 15.5616V5.68828C1.875 3.49828 3.08157 2.29163 5.27323 2.29163H5.67159V1.66663C5.67159 1.32163 5.95159 1.04163 6.29659 1.04163C6.64159 1.04163 6.92159 1.32163 6.92159 1.66663V2.29163H9.375V1.66663C9.375 1.32163 9.655 1.04163 10 1.04163C10.345 1.04163 10.625 1.32163 10.625 1.66663V2.29163H13.0784V1.66663C13.0784 1.32163 13.3584 1.04163 13.7034 1.04163C14.0484 1.04163 14.3284 1.32163 14.3284 1.66663V2.29163H14.7268C16.9184 2.29163 18.125 3.49828 18.125 5.68828ZM16.875 5.68828C16.875 4.18328 16.2326 3.54163 14.7268 3.54163H14.3284V4.16663C14.3284 4.51163 14.0484 4.79163 13.7034 4.79163C13.3584 4.79163 13.0784 4.51163 13.0784 4.16663V3.54163H10.625V4.16663C10.625 4.51163 10.345 4.79163 10 4.79163C9.655 4.79163 9.375 4.51163 9.375 4.16663V3.54163H6.92159V4.16663C6.92159 4.51163 6.64159 4.79163 6.29659 4.79163C5.95159 4.79163 5.67159 4.51163 5.67159 4.16663V3.54163H5.27323C3.7674 3.54163 3.125 4.18412 3.125 5.68828V15.5616C3.125 17.0666 3.7674 17.7083 5.27323 17.7083H14.7268C16.2326 17.7083 16.875 17.0658 16.875 15.5616V5.68828Z" fill="url(#paint0_linear_571_517)"/>
<defs>
<linearGradient id="paint0_linear_571_517" x1="8.97857" y1="-1.31583" x2="23.8398" y2="10.2741" gradientUnits="userSpaceOnUse">
<stop stop-color="#72A9BB"/>
<stop offset="1" stop-color="#488396"/>
</linearGradient>
</defs>
</svg>
