<svg width="20" height="20" viewBox="0 0 20 20" fill="none" xmlns="http://www.w3.org/2000/svg">
<path d="M8.56914 13.9599C8.27747 13.9599 7.98585 13.8849 7.71668 13.7341C7.16085 13.4224 6.82913 12.8567 6.82913 12.22V7.77991C6.82913 7.14324 7.16085 6.5775 7.71668 6.26583C8.27585 5.95333 8.93254 5.96584 9.47754 6.30001L13.21 8.58333C13.7075 8.88833 14.005 9.41744 14.005 10.0008C14.005 10.5841 13.7075 11.1132 13.21 11.4182L9.47754 13.7015C9.19504 13.8732 8.88247 13.9599 8.56914 13.9599ZM8.57087 7.29163C8.46087 7.29163 8.37254 7.33069 8.32754 7.35653C8.25254 7.39819 8.07831 7.52407 8.07831 7.77991V12.22C8.07831 12.4767 8.25254 12.6017 8.32754 12.6434C8.40337 12.6859 8.60248 12.7707 8.82498 12.634L12.5575 10.3507C12.7358 10.2415 12.755 10.0691 12.755 9.99996C12.755 9.93079 12.7358 9.75836 12.5575 9.65002L8.82498 7.3667C8.73414 7.31003 8.64753 7.29163 8.57087 7.29163ZM10 18.9583C5.06001 18.9583 1.04167 14.94 1.04167 9.99996C1.04167 5.05996 5.06001 1.04163 10 1.04163C14.94 1.04163 18.9583 5.05996 18.9583 9.99996C18.9583 14.94 14.94 18.9583 10 18.9583ZM10 2.29163C5.74917 2.29163 2.29167 5.74913 2.29167 9.99996C2.29167 14.2508 5.74917 17.7083 10 17.7083C14.2508 17.7083 17.7083 14.2508 17.7083 9.99996C17.7083 5.74913 14.2508 2.29163 10 2.29163Z" fill="url(#paint0_linear_571_507)"/>
<defs>
<linearGradient id="paint0_linear_571_507" x1="8.87381" y1="-1.31583" x2="24.0237" y2="11.711" gradientUnits="userSpaceOnUse">
<stop stop-color="#72A9BB"/>
<stop offset="1" stop-color="#488396"/>
</linearGradient>
</defs>
</svg>
