<svg width="20" height="20" viewBox="0 0 20 20" fill="none" xmlns="http://www.w3.org/2000/svg">
<path d="M17.5299 3.48505C17.5291 3.48505 17.5291 3.48507 17.5283 3.48424C16.1108 2.81174 14.5384 2.57589 12.8542 2.78172C11.6425 2.93089 10.6175 3.62335 10 4.59335C9.38167 3.62418 8.35748 2.93089 7.14498 2.78172C5.45915 2.57589 3.88922 2.81174 2.47172 3.48424C2.47172 3.48424 2.47174 3.48424 2.47091 3.48424C2.10924 3.6559 1.875 4.02833 1.875 4.43333V15.2708C1.875 15.5992 2.02491 15.9001 2.28658 16.0976C2.54741 16.2951 2.89258 16.3592 3.20841 16.2684C5.63258 15.58 7.67917 15.8718 9.65251 17.1859C9.66084 17.1918 9.67083 17.1933 9.67916 17.1983C9.68833 17.2033 9.695 17.2117 9.705 17.2167C9.71416 17.2217 9.72492 17.2192 9.73409 17.2242C9.81826 17.2642 9.90752 17.2909 9.99919 17.2909C10.0909 17.2909 10.1799 17.2642 10.2641 17.2242C10.2732 17.22 10.2842 17.2217 10.2934 17.2167C10.3025 17.2117 10.3101 17.2042 10.3184 17.1983C10.3267 17.1933 10.3367 17.1918 10.3451 17.1859C12.3159 15.8718 14.3633 15.58 16.7891 16.2684C17.1041 16.3575 17.4499 16.2951 17.7108 16.0976C17.9724 15.9001 18.1226 15.5983 18.1226 15.2708V4.43333C18.1251 4.03 17.8916 3.65755 17.5299 3.48505ZM5.61157 14.6617C4.81074 14.6617 3.98333 14.7734 3.125 14.9967V4.55917C4.3075 4.02417 5.57343 3.84757 6.99259 4.02257C8.35093 4.18923 9.375 5.34751 9.375 6.71585V15.575C8.17917 14.965 6.93157 14.6617 5.61157 14.6617ZM16.875 14.9967C14.6033 14.4059 12.5475 14.5942 10.625 15.575V6.71585C10.625 5.34668 11.6491 4.18923 13.0066 4.02257C13.3583 3.97923 13.7009 3.95757 14.035 3.95757C15.0475 3.95757 15.985 4.15667 16.8742 4.55917V14.9967H16.875Z" fill="url(#paint0_linear_571_514)"/>
<defs>
<linearGradient id="paint0_linear_571_514" x1="8.97751" y1="0.791142" x2="21.4364" y2="12.7284" gradientUnits="userSpaceOnUse">
<stop stop-color="#72A9BB"/>
<stop offset="1" stop-color="#488396"/>
</linearGradient>
</defs>
</svg>
